<?xml version="1.0" encoding="utf-8"?>
<svg style="fill:#8C8C8C;" id="icon" viewBox="0 0 32 32" xmlns="http://www.w3.org/2000/svg">
  <title>mic</title>
  <path d="M 16 21.299 C 18.926 21.299 21.299 18.926 21.299 16 L 21.299 5.401 C 21.299 1.322 16.884 -1.227 13.35 0.813 C 11.712 1.759 10.701 3.508 10.701 5.401 L 10.701 16 C 10.701 18.926 13.074 21.299 16 21.299 Z" style=""/>
  <path d="M 25.274 13.35 C 24.542 13.35 23.949 13.944 23.949 14.675 L 23.949 16 C 23.949 22.119 17.325 25.943 12.026 22.884 C 9.566 21.464 8.051 18.839 8.051 16 L 8.051 14.675 C 8.051 13.656 6.947 13.018 6.064 13.528 C 5.654 13.764 5.401 14.203 5.401 14.675 L 5.401 16 C 5.407 21.337 9.38 25.838 14.675 26.506 L 14.675 30.573 C 14.675 31.593 15.78 32.23 16.662 31.719 C 17.072 31.484 17.325 31.046 17.325 30.573 L 17.325 26.506 C 22.62 25.838 26.593 21.337 26.599 16 L 26.599 14.675 C 26.599 13.944 26.005 13.35 25.274 13.35 Z" style=""/>
</svg>